# xmcd
#
# Track frame offsets:
#	150
#	16422
#	33416
#	46551
#	62069
#	77634
#	92030
#	108194
#	124440
#	141541
#
# Disc length: 2096 seconds
#
# Revision: 0
# Processed by: cddbd v1.5.2PL0 Copyright (c) Steve Scherf et al.
# Submitted via: EasyCDDAExtractor 16.1.0.1
#
DISCID=80082e0a
DTITLE=Ruthie Collins - Get Drunk And Cry
DYEAR=2017
DGENRE=Country
TTITLE0=Getting Out There
TTITLE1=Boys And Beaches
TTITLE2=Great Wide Open
TTITLE3=Get Drunk And Cry
TTITLE4=All I Wanna Be
TTITLE5=Pink Bic Lighter
TTITLE6=You Don't
TTITLE7=Mockingbird
TTITLE8=What If You Fly
TTITLE9=Me and Emmylou
EXTD=
EXTT0=
EXTT1=
EXTT2=
EXTT3=
EXTT4=
EXTT5=
EXTT6=
EXTT7=
EXTT8=
EXTT9=
PLAYORDER=
